/* XPM */
static char * ea_xpm[] = {
"64 64 14 1",
" 	c #F47E1B",
".	c #E6482E",
"+	c #A93B3B",
"@	c #7A444A",
"#	c #5E3643",
"$	c #5A5353",
"%	c #595353",
"&	c #5D3643",
"*	c #585353",
"=	c #E7482D",
"-	c #E7482E",
";	c #F57F1A",
">	c #A83B3B",
",	c #F57E1A",
" .+@#$%%%%%%%%%%$%%%%%%%%%%%%%%%%$%%%%%%%%%%%%%%%%$%%%%%%%%%%%%%",
" .+@&*=--------+*;--------------+*;--------------+*;------------",
".>+++++++++++++@%->+++++++++++++@%->+++++++++++++@%->+++++++++++",
".++++++++++++++@%-++++++++++++++@%-++++++++++++++@%-++++++++++++",
".++++++++++++++@%-++++++++++++++@%-++++++++++++++@%-++++++++++++",
".++++++++++++++@%-++++++++++++++@%-++++++++++++++@%-++++++++++++",
".++++++++++++++@%-++++++++++++++@%-++++++++++++++@%-++++++++++++",
".++++++++++++++@%-++++++++++++++@%-++++++++++++++@%-++++++++++++",
"+@@@@@@@@@@@@@@#%+@@@@@@@@@@@@@@#%+@@@@@@@@@@@@@@#%+@@@@@@@@@@@@",
"*%%%%%%$$*%%%%%%%*%%%%%%%$*%%%%%%%*%%%%%%%$*%%%%%%%*%%%%%%%$*%%%",
"------+%%;--------------+*;--------------+*;--------------+*;---",
"++++++@$%->+++++++++++++@%->+++++++++++++@%->+++++++++++++@%->++",
"++++++@$%-++++++++++++++@%-++++++++++++++@%-++++++++++++++@%-+++",
"++++++@$%-++++++++++++++@%-++++++++++++++@%-++++++++++++++@%-+++",
"++++++@$%-++++++++++++++@%-++++++++++++++@%-++++++++++++++@%-+++",
"++++++@$%-++++++++++++++@%-++++++++++++++@%-++++++++++++++@%-+++",
"++++++@$%-++++++++++++++@%-++++++++++++++@%-++++++++++++++@%-+++",
"@@@@@@#$%+@@@@@@@@@@@@@@#%+@@@@@@@@@@@@@@#%+@@@@@@@@@@@@@@#%+@@@",
"*%%%%%%%%*%%%%%%$*%%%%%%%%*%%%%%%$*%%%%%%%%*%%%%%%$*%%%%%%%%*%%%",
",--------------+*;--------------+*;--------------+*;------------",
".>+++++++++++++@%->+++++++++++++@%->+++++++++++++@%->+++++++++++",
".++++++++++++++@%-++++++++++++++@%-++++++++++++++@%-++++++++++++",
".++++++++++++++@%-++++++++++++++@%-++++++++++++++@%-++++++++++++",
".++++++++++++++@%-++++++++++++++@%-++++++++++++++@%-++++++++++++",
".++++++++++++++@%-++++++++++++++@%-++++++++++++++@%-++++++++++++",
".++++++++++++++@%-++++++++++++++@%-++++++++++++++@%-++++++++++++",
"+@@@@@@@@@@@@@@#%+@@@@@@@@@@@@@@#%+@@@@@@@@@@@@@@#%+@@@@@@@@@@@@",
"*%%%%%%$$*%%%%%%%*%%%%%%%$*%%%%%%%*%%%%%%%$*%%%%%%%*%%%%%%%$*%%%",
"------+%%;--------------+*;--------------+*;--------------+*;---",
"++++++@$%->+++++++++++++@%->+++++++++++++@%->+++++++++++++@%->++",
"++++++@$%-++++++++++++++@%-++++++++++++++@%-++++++++++++++@%-+++",
"++++++@$%-++++++++++++++@%-++++++++++++++@%-++++++++++++++@%-+++",
"++++++@$%-++++++++++++++@%-++++++++++++++@%-++++++++++++++@%-+++",
"++++++@$%-++++++++++++++@%-++++++++++++++@%-++++++++++++++@%-+++",
"++++++@$%-++++++++++++++@%-++++++++++++++@%-++++++++++++++@%-+++",
"@@@@@@#$%+@@@@@@@@@@@@@@#%+@@@@@@@@@@@@@@#%+@@@@@@@@@@@@@@#%+@@@",
"*%%%%%%%%*%%%%%%$*%%%%%%%%*%%%%%%$*%%%%%%%%*%%%%%%$*%%%%%%%%*%%%",
",--------------+*;--------------+*;--------------+*;------------",
".>+++++++++++++@%->+++++++++++++@%->+++++++++++++@%->+++++++++++",
".++++++++++++++@%-++++++++++++++@%-++++++++++++++@%-++++++++++++",
".++++++++++++++@%-++++++++++++++@%-++++++++++++++@%-++++++++++++",
".++++++++++++++@%-++++++++++++++@%-++++++++++++++@%-++++++++++++",
".++++++++++++++@%-++++++++++++++@%-++++++++++++++@%-++++++++++++",
".++++++++++++++@%-++++++++++++++@%-++++++++++++++@%-++++++++++++",
"+@@@@@@@@@@@@@@#%+@@@@@@@@@@@@@@#%+@@@@@@@@@@@@@@#%+@@@@@@@@@@@@",
"*%%%%%%$$*%%%%%%%*%%%%%%%$*%%%%%%%*%%%%%%%$*%%%%%%%*%%%%%%%$*%%%",
"------+%%;--------------+*;--------------+*;--------------+*;---",
"++++++@$%->+++++++++++++@%->+++++++++++++@%->+++++++++++++@%->++",
"++++++@$%-++++++++++++++@%-++++++++++++++@%-++++++++++++++@%-+++",
"++++++@$%-++++++++++++++@%-++++++++++++++@%-++++++++++++++@%-+++",
"++++++@$%-++++++++++++++@%-++++++++++++++@%-++++++++++++++@%-+++",
"++++++@$%-++++++++++++++@%-++++++++++++++@%-++++++++++++++@%-+++",
"++++++@$%-++++++++++++++@%-++++++++++++++@%-++++++++++++++@%-+++",
"@@@@@@#$%+@@@@@@@@@@@@@@#%+@@@@@@@@@@@@@@#%+@@@@@@@@@@@@@@#%+@@@",
"*%%%%%%%%*%%%%%%$*%%%%%%%%*%%%%%%$*%%%%%%%%*%%%%%%$*%%%%%%%%*%%%",
",--------------+*;--------------+*;--------------+*;------------",
".>+++++++++++++@%->+++++++++++++@%->+++++++++++++@%->+++++++++++",
".++++++++++++++@%-++++++++++++++@%-++++++++++++++@%-++++++++++++",
".++++++++++++++@%-++++++++++++++@%-++++++++++++++@%-++++++++++++",
".++++++++++++++@%-++++++++++++++@%-++++++++++++++@%-++++++++++++",
".++++++++++++++@%-++++++++++++++@%-++++++++++++++@%-++++++++++++",
".++++++++++++++@%-++++++++++++++@%-++++++++++++++@%-++++++++++++",
"+@@@@@@@@@@@@@@#%+@@@@@@@@@@@@@@#%+@@@@@@@@@@@@@@#%+@@@@@@@@@@@@",
"%$$$$$$$$$$$$$$$$%$$$$$$$$$$$$$$$$%$$$$$$$$$$$$$$$$%$$$$$$$$$$$$"};
