/* XPM */
static char * no_xpm[] = {
"64 64 601 2",
"  	c #404854",
". 	c #4D5663",
"+ 	c #323A45",
"@ 	c #555E6D",
"# 	c #47505D",
"$ 	c #293337",
"% 	c #323E40",
"& 	c #49535E",
"* 	c #282F39",
"= 	c #313C3E",
"- 	c #2E3A3B",
"; 	c #2B333D",
"> 	c #525B6A",
", 	c #232C34",
"' 	c #3D474E",
") 	c #3F4753",
"! 	c #2B353A",
"~ 	c #2F3A3C",
"{ 	c #1F2A2E",
"] 	c #49525E",
"^ 	c #454E5A",
"/ 	c #3F4754",
"( 	c #3B4350",
"_ 	c #2F3A3D",
": 	c #354044",
"< 	c #242D34",
"[ 	c #303C3E",
"} 	c #2A3536",
"| 	c #30393F",
"1 	c #3A444A",
"2 	c #343D44",
"3 	c #313944",
"4 	c #454F59",
"5 	c #474F5D",
"6 	c #2F383E",
"7 	c #414A54",
"8 	c #343C46",
"9 	c #394349",
"0 	c #323D40",
"a 	c #212A31",
"b 	c #1A232B",
"c 	c #4C5562",
"d 	c #4C5561",
"e 	c #262F37",
"f 	c #3D464D",
"g 	c #313B41",
"h 	c #364145",
"i 	c #374147",
"j 	c #2D363C",
"k 	c #454E58",
"l 	c #364046",
"m 	c #444D58",
"n 	c #2F3840",
"o 	c #2B3638",
"p 	c #303A40",
"q 	c #29313A",
"r 	c #48505C",
"s 	c #3A444B",
"t 	c #404A52",
"u 	c #3C4451",
"v 	c #353F45",
"w 	c #333E41",
"x 	c #384147",
"y 	c #2A333A",
"z 	c #3F4951",
"A 	c #4B5561",
"B 	c #49525F",
"C 	c #2B333B",
"D 	c #384247",
"E 	c #2F3641",
"F 	c #464F5A",
"G 	c #46505A",
"H 	c #323A44",
"I 	c #384248",
"J 	c #2C3739",
"K 	c #313942",
"L 	c #454D5B",
"M 	c #4B5360",
"N 	c #434C58",
"O 	c #283138",
"P 	c #374046",
"Q 	c #353E45",
"R 	c #373F4B",
"S 	c #4A5260",
"T 	c #47505C",
"U 	c #2D353E",
"V 	c #323B41",
"W 	c #2F3740",
"X 	c #434B58",
"Y 	c #49525D",
"Z 	c #424B54",
"` 	c #3C4450",
" .	c #2B343A",
"..	c #394248",
"+.	c #0D1721",
"@.	c #414956",
"#.	c #2F393F",
"$.	c #283336",
"%.	c #273235",
"&.	c #3B434F",
"*.	c #273037",
"=.	c #313A40",
"-.	c #39414A",
";.	c #474F5C",
">.	c #272E38",
",.	c #303940",
"'.	c #2B3539",
").	c #0E1822",
"!.	c #303843",
"~.	c #3C454F",
"{.	c #3D4550",
"].	c #202831",
"^.	c #454D5A",
"/.	c #1B252A",
"(.	c #1A222C",
"_.	c #424B57",
":.	c #323945",
"<.	c #2D363D",
"[.	c #3E4651",
"}.	c #434B59",
"|.	c #242C35",
"1.	c #252F32",
"2.	c #253033",
"3.	c #121C24",
"4.	c #3E4653",
"5.	c #1D242F",
"6.	c #444D5A",
"7.	c #2A323D",
"8.	c #0B1520",
"9.	c #2F3742",
"0.	c #202732",
"a.	c #263035",
"b.	c #161F28",
"c.	c #434C59",
"d.	c #343D45",
"e.	c #1C272C",
"f.	c #2E3540",
"g.	c #222934",
"h.	c #19212B",
"i.	c #353D49",
"j.	c #1A242A",
"k.	c #353C48",
"l.	c #232E31",
"m.	c #373E4A",
"n.	c #1B232E",
"o.	c #39414D",
"p.	c #172029",
"q.	c #283238",
"r.	c #212933",
"s.	c #2C363B",
"t.	c #212B2E",
"u.	c #1C262C",
"v.	c #2E373E",
"w.	c #2E383E",
"x.	c #4C5563",
"y.	c #2B343B",
"z.	c #47505B",
"A.	c #2D373D",
"B.	c #454E5B",
"C.	c #3E4850",
"D.	c #394348",
"E.	c #222B32",
"F.	c #323B42",
"G.	c #2E3640",
"H.	c #3E474F",
"I.	c #2C363C",
"J.	c #29313B",
"K.	c #48515C",
"L.	c #192229",
"M.	c #313A41",
"N.	c #293139",
"O.	c #424C55",
"P.	c #3B454B",
"Q.	c #4D5662",
"R.	c #2B333C",
"S.	c #2A333B",
"T.	c #343B47",
"U.	c #49515E",
"V.	c #3B454C",
"W.	c #343E43",
"X.	c #364146",
"Y.	c #3E4552",
"Z.	c #4A535F",
"`.	c #2A323B",
" +	c #434D56",
".+	c #4D5563",
"++	c #3B444C",
"@+	c #3F4850",
"#+	c #293436",
"$+	c #2D3540",
"%+	c #444C5A",
"&+	c #48515D",
"*+	c #3D4551",
"=+	c #414B54",
"-+	c #343F42",
";+	c #1C252D",
">+	c #424A57",
",+	c #4A535E",
"'+	c #3D464F",
")+	c #3C464D",
"!+	c #353E43",
"~+	c #343D46",
"{+	c #404952",
"]+	c #202930",
"^+	c #4A525F",
"/+	c #39424B",
"(+	c #374146",
"_+	c #313C3F",
":+	c #434C56",
"<+	c #323B44",
"[+	c #2E393C",
"}+	c #2E3641",
"|+	c #252F34",
"1+	c #293239",
"2+	c #1B252B",
"3+	c #323D41",
"4+	c #242C36",
"5+	c #353E44",
"6+	c #151E26",
"7+	c #1C262B",
"8+	c #0C1621",
"9+	c #1C242E",
"0+	c #303742",
"a+	c #303743",
"b+	c #131B25",
"c+	c #131C25",
"d+	c #172128",
"e+	c #1A232A",
"f+	c #232B35",
"g+	c #2B323C",
"h+	c #222D30",
"i+	c #364045",
"j+	c #273135",
"k+	c #222D31",
"l+	c #37404A",
"m+	c #444D57",
"n+	c #555E6C",
"o+	c #303B3D",
"p+	c #2E383C",
"q+	c #283335",
"r+	c #4F5865",
"s+	c #3A414E",
"t+	c #283436",
"u+	c #343F43",
"v+	c #263134",
"w+	c #1B262B",
"x+	c #404953",
"y+	c #3E4652",
"z+	c #454E59",
"A+	c #4E5664",
"B+	c #343E44",
"C+	c #363F45",
"D+	c #212930",
"E+	c #414A53",
"F+	c #3D4651",
"G+	c #313A42",
"H+	c #333C44",
"I+	c #2E3A3C",
"J+	c #252E35",
"K+	c #414A55",
"L+	c #202B2F",
"M+	c #444C58",
"N+	c #2D363E",
"O+	c #3D4451",
"P+	c #4B5461",
"Q+	c #4A5360",
"R+	c #353D48",
"S+	c #3A454B",
"T+	c #2C343E",
"U+	c #3F4853",
"V+	c #414B53",
"W+	c #323A43",
"X+	c #38404C",
"Y+	c #242E32",
"Z+	c #333E42",
"`+	c #374247",
" @	c #3E484F",
".@	c #273234",
"+@	c #374246",
"@@	c #434B57",
"#@	c #273036",
"$@	c #4B5560",
"%@	c #1D262E",
"&@	c #384348",
"*@	c #1F282F",
"=@	c #2B343D",
"-@	c #2A3537",
";@	c #333D43",
">@	c #1E282D",
",@	c #1E292D",
"'@	c #141E26",
")@	c #131D25",
"!@	c #0E1721",
"~@	c #303842",
"{@	c #0F1823",
"]@	c #192329",
"^@	c #0C1620",
"/@	c #1D272C",
"(@	c #162027",
"_@	c #182228",
":@	c #252D38",
"<@	c #0F1922",
"[@	c #111A23",
"}@	c #2F3640",
"|@	c #2D353F",
"1@	c #464F5B",
"2@	c #505967",
"3@	c #2A313D",
"4@	c #414A56",
"5@	c #323A46",
"6@	c #4E5765",
"7@	c #404954",
"8@	c #343C47",
"9@	c #4D5664",
"0@	c #333B45",
"a@	c #4B5460",
"b@	c #262E38",
"c@	c #252C37",
"d@	c #454D59",
"e@	c #232C33",
"f@	c #4E5763",
"g@	c #444E57",
"h@	c #49515F",
"i@	c #48525D",
"j@	c #2D343E",
"k@	c #3C464C",
"l@	c #394249",
"m@	c #30393E",
"n@	c #374148",
"o@	c #48505D",
"p@	c #373F49",
"q@	c #444C59",
"r@	c #353E46",
"s@	c #383F4B",
"t@	c #303A3F",
"u@	c #151D28",
"v@	c #2C353C",
"w@	c #2B333E",
"x@	c #212B2F",
"y@	c #182129",
"z@	c #333C42",
"A@	c #29303B",
"B@	c #1E272F",
"C@	c #323C42",
"D@	c #1D252D",
"E@	c #364047",
"F@	c #161E28",
"G@	c #363F47",
"H@	c #414955",
"I@	c #363E4A",
"J@	c #323B43",
"K@	c #242B36",
"L@	c #2A313C",
"M@	c #263135",
"N@	c #3A424E",
"O@	c #2D3440",
"P@	c #353E48",
"Q@	c #1A232C",
"R@	c #1F292C",
"S@	c #333C43",
"T@	c #2E373D",
"U@	c #2F3B3D",
"V@	c #252D35",
"W@	c #262E37",
"X@	c #4C5662",
"Y@	c #353F44",
"Z@	c #3C4550",
"`@	c #404951",
" #	c #464F59",
".#	c #2E363F",
"+#	c #242D35",
"@#	c #2A323A",
"##	c #2F3741",
"$#	c #434D57",
"%#	c #2F373F",
"&#	c #19222A",
"*#	c #353D46",
"=#	c #464E5C",
"-#	c #363E49",
";#	c #444E58",
">#	c #272F38",
",#	c #252D36",
"'#	c #2A323C",
")#	c #1E262F",
"!#	c #1F2730",
"~#	c #18212A",
"{#	c #1B232C",
"]#	c #1E282E",
"^#	c #212A32",
"/#	c #202A30",
"(#	c #1B242C",
"_#	c #161F27",
":#	c #232B34",
"<#	c #222A33",
"[#	c #1E272E",
"}#	c #1A242B",
"|#	c #28303A",
"1#	c #1A222B",
"2#	c #2D343F",
"3#	c #1F282E",
"4#	c #192227",
"5#	c #353F43",
"6#	c #313D3F",
"7#	c #333B46",
"8#	c #2E3740",
"9#	c #2A3339",
"0#	c #404855",
"a#	c #364044",
"b#	c #48505E",
"c#	c #202931",
"d#	c #29323A",
"e#	c #424C56",
"f#	c #515A68",
"g#	c #303A3D",
"h#	c #333A45",
"i#	c #262F36",
"j#	c #464F5C",
"k#	c #39414B",
"l#	c #18202A",
"m#	c #373F4A",
"n#	c #2C343D",
"o#	c #3A434A",
"p#	c #232B33",
"q#	c #293339",
"r#	c #2C353B",
"s#	c #48515E",
"t#	c #3A434E",
"u#	c #151F26",
"v#	c #212C30",
"w#	c #1D272D",
"x#	c #2A343A",
"y#	c #222A34",
"z#	c #202A2F",
"A#	c #212C2F",
"B#	c #2B323D",
"C#	c #111B24",
"D#	c #202A2E",
"E#	c #131C26",
"F#	c #252E34",
"G#	c #2D383A",
"H#	c #4E5665",
"I#	c #2B3639",
"J#	c #1D252F",
"K#	c #222C30",
"L#	c #2C373A",
"M#	c #273335",
"N#	c #131C24",
"O#	c #2D383B",
"P#	c #303941",
"Q#	c #2F383F",
"R#	c #4C5461",
"S#	c #4C5462",
"T#	c #424A56",
"U#	c #464E5B",
"V#	c #3F4851",
"W#	c #3A424D",
"X#	c #3B444B",
"Y#	c #434C55",
"Z#	c #2D353D",
"`#	c #3D464E",
" $	c #434C57",
".$	c #4F5866",
"+$	c #3C454D",
"@$	c #3C454C",
"#$	c #313844",
"$$	c #2D393B",
"%$	c #333D42",
"&$	c #212B31",
"*$	c #212931",
"=$	c #444E59",
"-$	c #161F29",
";$	c #303A3E",
">$	c #313B40",
",$	c #293338",
"'$	c #1F292F",
")$	c #363D49",
"!$	c #1F292E",
"~$	c #2C383A",
"{$	c #283236",
"]$	c #202830",
"^$	c #2A3538",
"/$	c #232B36",
"($	c #3C4350",
"_$	c #171F2A",
":$	c #333A46",
"<$	c #202832",
"[$	c #333B47",
"}$	c #2C333E",
"|$	c #1B232D",
"1$	c #374049",
"2$	c #323A42",
"3$	c #414A52",
"4$	c #3B434B",
"5$	c #262E36",
"6$	c #3B444F",
"7$	c #283039",
"8$	c #1E2530",
"9$	c #121B24",
"0$	c #172028",
"a$	c #222B33",
"b$	c #1B242D",
"c$	c #252E36",
"d$	c #212932",
"e$	c #222A32",
"f$	c #273039",
"g$	c #19232A",
"h$	c #212A33",
"i$	c #1F272E",
"j$	c #545D6B",
"k$	c #2A3438",
"l$	c #525A69",
"m$	c #545D6C",
"n$	c #2D373C",
"o$	c #2F3B3C",
"p$	c #303B3F",
"q$	c #424B55",
"r$	c #333B44",
"s$	c #303840",
"t$	c #3A4449",
"u$	c #47515B",
"v$	c #2B343C",
"w$	c #2C353D",
"x$	c #343C45",
"y$	c #252C36",
"z$	c #2E3541",
"A$	c #363F48",
"B$	c #38404A",
"C$	c #263034",
"D$	c #232E32",
"E$	c #2B353B",
"F$	c #222B2F",
"G$	c #293437",
"H$	c #141E25",
"I$	c #4A5361",
"J$	c #121B25",
"K$	c #343B46",
"L$	c #1B232B",
"M$	c #3A434C",
"N$	c #404754",
"O$	c #1E2630",
"P$	c #3B424F",
"Q$	c #1E272D",
"R$	c #263234",
"S$	c #323C43",
"T$	c #313843",
"U$	c #3F4950",
"V$	c #343D43",
"W$	c #29323B",
"X$	c #3D474F",
"Y$	c #232D32",
"Z$	c #39434A",
"`$	c #333D41",
" %	c #303B3E",
".%	c #444D59",
"+%	c #262F35",
"@%	c #1D282C",
"#%	c #1D282D",
"$%	c #0D1621",
"%%	c #212833",
"&%	c #0D1722",
"*%	c #343C48",
"=%	c #172127",
"-%	c #29313C",
";%	c #242F32",
">%	c #3F4852",
",%	c #293537",
"'%	c #3E4851",
")%	c #2C333D",
"!%	c #404A53",
"~%	c #353E47",
"{%	c #464E5A",
"]%	c #404853",
"^%	c #3D4650",
"/%	c #424C54",
"(%	c #303C3D",
"_%	c #323C41",
":%	c #38404B",
"<%	c #2C363A",
"[%	c #1C252B",
"}%	c #1D262C",
"|%	c #151E27",
"1%	c #172027",
"2%	c #1B242B",
"3%	c #101924",
"4%	c #1D262D",
"5%	c #101A23",
"6%	c #2A313B",
"7%	c #4B5462",
"8%	c #525B69",
"9%	c #505966",
"0%	c #515A69",
"a%	c #272F39",
"b%	c #2D363B",
"c%	c #3B434E",
"d%	c #3D4450",
"e%	c #313941",
"f%	c #0E1722",
"g%	c #272E39",
"h%	c #3A424C",
"i%	c #141C26",
"j%	c #182029",
"  . . . . . . + @ # $ % % % % % % & * = - ; . . . . . . + > @ , % % % % % % ' ) ! ~ { ] . . . . . ^ / @ ( _ % % % % % : ] < [ } ",
"| 1 1 1 1 1 2 3 4 5 6 1 1 1 1 1 7 8 9 1 0 a 1 1 1 1 1 1 b c d e 1 1 1 1 1 f   g 1 h { i 1 1 1 1 1 j / k ( l 1 1 1 1 1 m n 1 9 o ",
"| 1 2 p p p q r s 5 6 1 1 1 1 t u v 1 1 w a 1 x p p p y / z A e 1 1 1 1 1 B C 1 1 D { i 1 g p p p E F t ( l 1 1 1 1 G H I 1 1 J ",
"| K / L L L M s 1 5 6 1 1 1 1 ' N O P 1 w a Q R L L L S t 1 A e 1 1 1 1 1 T U V 1 D { i W X L L L Y 1 t ( l 1 1 1 1 Z `  ...1 J ",
"+.@.#.$.$.$.$.%.%.&.*.=.=.=.=.=.-.;.>.,.'.).!.~.$.$.$.$.%.%.{.].=.=.=.=.=.=.^.R y 6 /.(._.'.$.$.$.%.%.#.:.<.=.=.=.=.=.[.}.|.=.1.",
"2.2.2.2.3.4./ 5.6.^.7.8.9.^.0.a.b.c.d.2.2.2.2.2.2.e.f.^.g.` ^.` 8.h.X i.j.< k.) 2.2.2.2.2.2.l.h.X m.7.^.^.n.8.o.@.p.q.r.^.s.2.t.",
"1 1 1 : u.v.w.) z x.y.9 1 z.i.9 A.:.B.C.1 1 1 1 D.$.E.F.; Y d G.I 1 H.B I.I J.o.K.1 1 1 1 1 0 L.M.N.;.O.X F.9 P.Q.R.1 S.T.U.V.W.",
"1 1 1 X.u.Y.# O.1 Z.`.1 1  +i.9 O .+++@+1 1 1 1 1 #+$+%+&+s t *+v 1 1 U.j v ` 7 =+1 1 1 1 1 -+;+>+B H.1 ] y.1 1 ,+R.1 R.d '+)+!+",
"1 1 1 X.u.P.P.1 1 & R.1 1  +i.9 1 ~+P.1 1 1 1 1 1 #+v.V.1 1 z ) 2 1 1 U.j 1 <.{+1 1 1 1 1 1 -+]+V.P.1 1 ^+S.1 1 ,+R.1 l /+1 1 !+",
"1 1 1 (+u._+w w :+<+[+w w z }+l 1 1 1 1 1 1 1 1 1 #+|+w w P./ $ w w w N 1+1 1 1 1 1 1 1 1 1 -+2+3+w w T 1+_+w w k 4+9 1 1 1 1 5+",
"6+u.u.7+j./.2+2+u.8+9+9.9.!.}+9.0+0+0+0+a+b+7+u.u./.j.2+2+u.c++.$+9.9.9.E 0+0+0+0+0+g.d+u.u.7+j.2+2+2+e++.f+9.9.a+}+0+0+0+0+0+g+",
"h+w i+i+i+i+i+i+j+k+l+d c.m+F F G F F F n+;+o+i+i+i+i+i+i+p+q+|.K.c [.F F F F F F r+s+t+: i+i+i+i+i+u+v+w+x+r+y+z+F F G F F Y A+",
"v+1 1 1 1 1 1 v.*+$.6 1 m <+B+1 U i 1 1 Q.]+: 1 1 1 1 1 C+`.z D+1 E+F+<.9 G+H+1 1 Z s+I+1 1 1 1 1 1 J+K+L+l f M+N+l i G.9 1 1 ^+",
"v+1 1 1 1 1 d.O+P+%.6 1 P.z.y+q Q+K.1 1 d ]+i+1 1 1 1 I R+B S+D+1 1 t ;.T+U+. P.1 V+s+~ 1 1 1 1 1 W+X G L+l 1 P.&+X+H Q.O.1 1 ] ",
"Y+Z+`+`+`+`+4  @h .@j `+`++@@@#@`+I `+`+$@%@o+(+`+`+`+' 4 &@= *@`+`+`+E+=@i+I `+`+z s+-@: `+`+`+`+K.P.u+L+;@`+`+1 {.I.D D `+`+U.",
"+.>@>@>@,@>@>@>@>@'@)@>@>@>@!@>@>@>@>@>@~@{@]@>@>@>@,@>@>@>@/.^@/@>@>@(@_@>@>@>@>@J+:@3.>@>@>@,@>@>@>@>@<@d+>@>@7+[@>@>@>@>@>@}@",
"$+# c P+|@1@c c c c c c c 2@3@^ c c c c c 4@5@6@c 7@8@c c c c c c c 9@>+0@c c c c c c r.9@c a@b@Z.c c c c c c c 6@c@^+c c c c d@",
"e@f@1 X.u.1 1 1 1 1 1 1 1 g@i.9 1 1 1 1 1 V }.' 1 #+A.1 1 1 1 1 1 1 P.h@j 1 1 1 1 1 1 $+i@1 -+]+1 1 1 1 1 1 1 1 Z.R.1 1 1 1 1 !+",
"j@. 1 X.u.1 1 1 1 1 1 1 1  +i.9 1 1 1 1 l *..+k@1 #+A.1 1 1 1 1 1 1 1 U.j 1 1 1 1 l@=.o.K.1 -+]+1 1 1 1 1 1 1 1 ,+R.1 1 1 1 1 m@",
"Z.{+1 X.u.1 1 1 1 1 1 1 1  +i.9 1 1 1 n@&.o@k 1 1 #+A.1 1 1 1 1 1 1 1 U.j 1 1 1 l@p@q@] ' 1 -+]+1 1 1 1 1 1 1 1 ,+R.1 1 1 1 r@s@",
";@;@;@t@'@#@;@;@;@;@;@;@;@r@u@ .;@;@v@w@x+Q ;@;@;@x@y@z@;@;@;@;@;@;@;@A@B@C@;@M.D@N E@;@;@;@s.[@j ;@;@;@;@;@;@;@<+F@v.;@;@*.R G@",
"i.H@H@H@H@H@H@b@H@I@e.l.l.l.l.l.l.J@r.h+l.K@H@H@H@H@H@H@L@4.@.b l.l.l.l.l.l.M@+ /.l._@*+H@H@H@H@H@N@a+H@O@L+l.l.l.l.l.l.P@Q@l.R@",
"S@ @ @ @ @ @)+:.Q.5 T@D.D.D.D.D. @q@,.D U@e@ @ @ @ @ @ @V@r+2@W@D.D.D.D.D.D.&+<+i w { s  @ @ @ @ @r@/ X@( Y@D.D.D.D.D.m+Z@C@h } ",
"| 1 1 1 1 1 y ) `@5 6 1 1 1 1 )+7@F.1 1 w a 1 1 1 1 1 l L@z.A e 1 1 1 1 1  #.#..1 D { i 1 1 1 1 1 +#^ O.( l 1 1 1 1 `@o.v 1 1 J ",
"| z@; |@|@|@y+E+1 5 6 1 1 1 1 =+s+v 1 1 w a I y |@|@|@+ F 1 A e 1 1 1 1 1 B @#9 1 D { i 6 T+|@|@|@N ' t ( l 1 1 1 1 K.##i 1 1 J ",
"a @@4 $#$#$#z -+-+;.6 1 1 1 1 1 z.@.%#1 w &#*#B $#$#$#$#: -+Z.e 1 1 1 1 1 z =#-#P D { y ;.;#$#$#$#)+-+)+( l 1 1 1 1 P.&+y+M.1 J ",
"(@>#7+7+)@|.,#)@'#9.)#p.!#j@~#%@{#:.|.]#/@(@^#/#7+d+(#R._#:#9.c@p.p.; <#&#;+w@f.2+[#L.}#V@7+j.)@|#].1#T+2#1#p.|.J.p.[#r.5@B@3#4#",
"5#5#5#6#/.m z+7#A > 8# .~.r+:.i+9#0#] a#5#5#5#5#-+.@8 i@j@c 2@) 9#G+Z.b#q.v 9.Q+' 5#5#5#5#5#U@c#z.{./ c 6@d# .e#f#>#D @#L ;#5#g#",
"1 1 1 X.7+4+h#z+1 Q+1+1 1  +i.9 i#j#k#O.1 1 1 1 1 #+l#T+  t z.!.9 1 1 U.j B+*+H K.1 1 1 1 1 -+3.J.m#k ' X =.1 1 ,+R.1 n#K+7@H.!+",
"1 1 1 X.u. # #k@1 z.0+o#1  +i.9 B+y+V.1 1 1 1 1 1 #+P@Y @+1 ' N M.1 1 U.j 9 G.k 1 1 1 1 1 1 -+p#K.m+P.1 Z.S.1 1 ,+R.1 ,.@@1 1 !+",
"1 1 1 X.u.D I I t _.q#I I O.i.9 1 l@1 1 1 1 1 1 1 #+r#I I 1 F W (+I D s#j 1 i V.1 1 1 1 1 1 -+*@I I I g@t##.I I Y R.1 9 o#1 1 !+",
"9#9#9##@u#/@v#v#|@%@v#v#v#v@h.< 9#9#9#9#9#9#9#9#9#w#_#v#v#x#y#z#v#v#A#B#1#9#9#9#9#9#9#9#9#9#|+C#D#v#A#G.u.v#v#v#N+E#*.9#9#9#9#F#",
"7+J G#G#G#G#G#G#-@_@8@x.h@^+^+^+^+^+^+^+H#F@-@G#G#G#G#G#G#I#k+J#^+x.s#^+^+^+^+^+^+c k.K#L#G#G#G#G#G#G#M#N#) 9@b#^+^+^+^+^+^+Q+;.",
"v+I 1 1 1 1 1 i T+%.6 H.y+F.1 1 6 9 1 1 2@]+-+1 1 1 1 1 9 d#B+D+V.z+U I 1 v 2 1 1 F s+O#9 1 1 1 1 1 F.P#L+l :+R+Q 1 9 Q#1 1 ' R#",
"v+1 1 1 1 1 C+W@S#$.6 1 z T#R.C@U#V#1 1 d ]+i+1 1 1 1 1 y ` t D+1 1 z+7#M.W#1@X#1 V+s+~ 1 1 1 1 1 C@'#a@L+l 1 Y#` Z#2 o@`#1 1 ] ",
"v+D 1 1 1 1  $Z. @%.6 1 1  @.$W@ @Z 1 1 d ]+Z+1 1 1 1 +$Q+g@Z+D+1 1 @$d #$+$:+P.1 V+s+O#9 1 1 1 1 1@K.s L+l 1 1 :+# W t @+1 1 ] ",
"_@J $$$$$$$$%$[+G#x@&$$$$$$$*$$.$$$$$$$$=$-$%.O#$$$$$$;$>$$$#+(@O#$$$$,$'$O#$$$$$$n@)$!$~$$$$$$$$$%$$$L#j.{$$$$$L#]$^$$$$$$$$$@@",
"/$#$( ( K@T.( ( ( ( ( ( ( ($_$:$( ( ( ( ( 7#<$( ( [$c@( ( ( ( ( ( ( ( }$f+( ( ( ( ( ($F@X+( ($|$o.( ( ( ( ( ( ( s@u@X+( ( ( ( )$",
">#6@E+ @E.t t t t t t t t Z.i.z t t t t t 1$  k t g J@t t t t t t t :+S 2$t t t t t 3$B#c t )++#t t t t t t t t r+T+t t t t t 4$",
"5$. 1 X.u.1 1 1 1 1 1 1 1  +i.9 1 1 1 1 1 p U#k@1 #+A.1 1 1 1 1 1 1 1 U.j 1 1 1 1 1 9 !.K.1 -+]+1 1 1 1 1 1 1 1 ,+R.1 1 1 1 1 !+",
"q@i@1 X.u.1 1 1 1 1 1 1 1  +i.9 1 1 1 9 S.8@.$P.1 #+A.1 1 1 1 1 1 1 1 U.j 1 1 1 1 M.|@h@:+1 -+]+1 1 1 1 1 1 1 1 ,+R.1 1 1 1 P V@",
"@+1 1 X./.B+1 1 1 1 1 1 1 Z A@i 1 1 I 8 P+k 1 1 1 $.i#1 1 1 1 1 1 1 1 ) y 1 1 9 v.s#i@' 1 1 Z+b i 1 1 1 1 1 1 1 $#:#I 1 1 C+6$M+",
"V@7$7$>#8$r.7$*$7$,#*@]+]+;+9$0$]+a$1#b$c$c#7$7$7$d$8$7$e$>#7$B@]+]+]+)@9$*@]+:#<@f$[#>#7$7$,#8$|.W@:#7$a$*@]+]+g$9$e+]++#E#h$i$",
"[.a@a@a@a@a@a@+ j$# k$-+-+-+-+-+: ] 7$0 - `.a@a@a@a@a@a@~@l$m$< -+-+-+-+-+-+{+` n$o${ z.a@a@a@a@a@ $/ j$( p$-+-+-+-+-+I T i#6#} ",
"| 1 1 1 1 1 V T.g@5 6 1 1 1 1 1 q$r$9 1 0 a 1 1 1 1 1 9 Q@d A e 1 1 1 1 1 C.*+z@1 (+{ i 1 1 1 1 1 y H@m+( l 1 1 1 1 P.@@s$1 t$o ",
"| 9 =.I.I.I.T+T 1 5 6 1 1 1 1 V+N@P 1 1 w a 1 Q I.I.I.N._. @A e 1 1 1 1 1 B y.1 1 D { i l@v.I.I.j 8@;#t ( l 1 1 1 1 u$~@9 1 1 J ",
"T@H+X b#b#b#Z.9 9 5 6 1 1 1 1 )+^ v$Q 1 w ]+2 ` b#b#b#P+ @9 a@e 1 1 1 1 1 F 3 M.1 D { 5+7#j#b#b#o@z.9 {+( l 1 1 1 1 t ) w$i 1 J ",
"8.*+9#l.l.l.l.Y+Y+m.< <.<.<.<.<.x$>+y$v@{$+.z$A$l.l.l.l.Y+Y+B$)#<.<.<.<.<.j 0#R+i# .]@h.y+C$l.l.l.D$Y+E$z$9#<.<.<.<.<.k#  d$<.F$",
"G$G$G$#+H$>+X r.h@I$2#J$K$S K@ .L$;.M$G$G$G$G$G$G${ #$s#c@@.S N$J$O$# P$Q$O I@d@I#G$G$G$G$G$R$b$j#N@9.h@S O$J$*+5 {#I.|.h@S$G$1.",
"1 1 1 : 7+O y.H@' P+y.1 1  #i.9 j 8@_.t 1 1 1 1 9 t+%@<.E z.a@U 9 1 k@B j i 2#k.] 1 1 1 1 1 w 0$y.*.T V+@.z@1 1 d R.1 S.7#o@)+!+",
"1 1 1 X.u.>+B E+1 ] ; 1 1  +i.9  .P+V.' 1 1 1 1 1 #+T$s#u$1 U$/ V$1 1 U.j l N@:+z 1 1 1 1 1 -+)#=#Q+f 1 ^+S.1 1 ,+R.1 n#P+)+V.!+",
"1 1 1 X.u.9 1 1 P.] W$1 1  +i.9 1 ~+P.1 1 1 1 1 1 #+<.1 1 1 t ` v 1 1 U.j 1 #.V#1 1 1 1 1 1 -+]+1 1 1 P.o@y.1 1 ,+R.1 i -.1 1 !+",
"......Y@7+p+= = 7 G.O#= = X$B#B+................l@$.Y$= = Z$&.q+_+= [ 0#*...................`$g$ %= [ .%+%_ = = q$<#i ........z@",
"N#@%@%@%>@#%#%#%@%$%%%I@I@I@I@I@I@I@I@I@I@{@/@@%@%#%>@#%#%@%u#&%*%I@I@I@I@I@I@I@I@I@c@=%@%@%@%>@#%#%#%/.8.-%I@I@I@I@I@I@I@I@I@T$",
"l.u+(+(+(+(+(+(+|+;%A$Y 0#>%:+:+O.:+:+:+m$%@[ (+(+(+(+(+(+n$,%+#4 Q+B$:+:+Y#O.:+:+. s+,%h (+(+(+(+(+Y@C$/@'%Q.o.Z :+:+O.:+:+G 9@",
"v+1 1 1 1 1 1  .@.$.6 1 m 8@g 1 T$i 1 1 d ]+i+1 1 1 1 1 2 )%!%D+1 z H@y 9 J@~%1 1 V+s+~ 1 1 1 1 1 9 a$d@L+l k@{%U B+l + 9 1 1 ] ",
"v+1 1 1 1 1 G@>+& %.6 1 1 G c.7$Y K.1 1 d ]+a#1 1 1 1 I N@Q+9 D+1 1 U$Q+|@]%Q.P.1 V+s+I+1 1 1 1 1 *#j#;#L+l 1 1 ] *+H a@O.1 1 ] ",
"h+0 h h h h  +1 5#R$! h h i+^%j+h i+h h a@;+I+i+h h h k@/%i+(%]#i+h h X$q u+i+h h C.s+t+-+h h h i+4 `+w z#_%h h I :%<%h h h h U.",
"+.u.Q$Q$[%}%Q$Q$Q$b.|%Q$Q$Q$^@u.Q$Q$Q$Q$; J$1%Q$Q$w#2+Q$Q$Q$2%3%4%Q$Q$6+(@Q$Q$Q$Q$, f+5%w#Q$Q$2+w#Q$Q$Q$c+y@Q$Q$2%<@w#Q$Q$Q$Q$6%",
"G.7%Q.d |@T Q.Q.Q.Q.Q.Q.Q.8%$+1@Q.Q.Q.Q.Q.T#m.9%Q.7@P@Q.Q.Q.Q.Q.Q.Q.r+U#8 Q.Q.Q.Q.Q.Q.4+2@Q.a@>#a@Q.Q.Q.Q.Q.Q.Q.0%a%Q+Q.Q.Q.Q.{%",
"e@. 1 X.u.1 1 1 1 1 1 1 1  +i.9 1 1 1 1 1 V }.k@1 #+A.1 1 1 1 1 1 1 1 U.j 1 1 1 1 1 1 $+K.1 -+]+1 1 1 1 1 1 1 1 ,+R.1 1 1 1 1 !+",
"##. 1 X.u.1 1 1 1 1 1 1 1  +i.9 1 1 1 1 V$< 6@k@1 #+A.1 1 1 1 1 1 1 1 U.j 1 1 1 1 I <.&.u$1 -+]+1 1 1 1 1 1 1 1 ,+R.1 1 1 1 1 b%",
"Z.H.1 X.u.9 1 1 1 1 1 1 1  +R+9 1 1 1 n@0#Q+O.1 1 #+<.1 1 1 1 1 1 1 1 s#j 1 1 1 I c%o@K.V.1 -+]+1 1 1 1 1 1 1 1 & g+1 1 1 1 A$d%",
"| | | j 3.E.| | | | | | | e%f%i#| | O g%h%| | | | >@i%Q#| | | | | | | r.{#6 | <.j%y+,.| | | ,$).O | | | | | | | w$C#9#| | E.:$s$"};
