/* XPM */
static char * so_xpm[] = {
"64 64 277 2",
"  	c #F6CA9F",
". 	c #EDA261",
"+ 	c #BF7A5A",
"@ 	c #A05C52",
"# 	c #794448",
"$ 	c #D2C6B9",
"% 	c #BD7A58",
"& 	c #A1584F",
"* 	c #EDA364",
"= 	c #BE7957",
"- 	c #C07959",
"; 	c #BF7A58",
"> 	c #9D5A4D",
", 	c #F9CAA4",
"' 	c #ECA260",
") 	c #EEA262",
"! 	c #ECA263",
"~ 	c #C17856",
"{ 	c #BF7957",
"] 	c #C17959",
"^ 	c #BD7957",
"/ 	c #BC7957",
"( 	c #C07958",
"_ 	c #BF7A57",
": 	c #BE7A58",
"< 	c #A2594E",
"[ 	c #ECA463",
"} 	c #C07858",
"| 	c #A05A51",
"1 	c #F6CBA1",
"2 	c #A15B52",
"3 	c #794347",
"4 	c #D3C5B7",
"5 	c #BD7959",
"6 	c #A15950",
"7 	c #ECA461",
"8 	c #BF7958",
"9 	c #EBA262",
"0 	c #BE7A56",
"a 	c #BD7A57",
"b 	c #C07957",
"c 	c #A1594F",
"d 	c #EDA360",
"e 	c #BD7857",
"f 	c #D7C6B5",
"g 	c #BE7958",
"h 	c #D5C7B5",
"i 	c #BD7A5A",
"j 	c #A05A4F",
"k 	c #EDA262",
"l 	c #C07A58",
"m 	c #ECA363",
"n 	c #BE7A59",
"o 	c #BE7A5A",
"p 	c #BD7A59",
"q 	c #BD7B58",
"r 	c #A05A50",
"s 	c #EEA261",
"t 	c #D7C6B4",
"u 	c #BF7A59",
"v 	c #D7C6B3",
"w 	c #BC7A59",
"x 	c #A05B4F",
"y 	c #A15A50",
"z 	c #EDA464",
"A 	c #BE7959",
"B 	c #BD795A",
"C 	c #A05A52",
"D 	c #BF7B58",
"E 	c #A05B52",
"F 	c #BD7858",
"G 	c #A15A4D",
"H 	c #A15B51",
"I 	c #7A4246",
"J 	c #EDA264",
"K 	c #BE795A",
"L 	c #EEA263",
"M 	c #C07A57",
"N 	c #A15A51",
"O 	c #A05B51",
"P 	c #794246",
"Q 	c #EFA363",
"R 	c #BF7B57",
"S 	c #F7CB9F",
"T 	c #EDA163",
"U 	c #EDA363",
"V 	c #EDA361",
"W 	c #EEA361",
"X 	c #C07A5A",
"Y 	c #ECA360",
"Z 	c #9F5A50",
"` 	c #F8CBA0",
" .	c #EBA263",
"..	c #EDA362",
"+.	c #C2795A",
"@.	c #EEA362",
"#.	c #EBA25F",
"$.	c #BF7959",
"%.	c #EDA260",
"&.	c #D7C5B5",
"*.	c #D6C4B2",
"=.	c #BD7B59",
"-.	c #EBA163",
";.	c #A05950",
">.	c #BE7A57",
",.	c #D6C6B3",
"'.	c #BD7958",
").	c #D6C7B4",
"!.	c #D6C5B4",
"~.	c #A05B50",
"{.	c #ECA364",
"].	c #A05B55",
"^.	c #BF7B5A",
"/.	c #7A4248",
"(.	c #C07B58",
"_.	c #9F5B50",
":.	c #7A434A",
"<.	c #EFA261",
"[.	c #9E5B50",
"}.	c #FBC9A1",
"|.	c #EDA263",
"1.	c #EEA363",
"2.	c #9E5B4E",
"3.	c #FAC9A2",
"4.	c #ECA362",
"5.	c #EEA264",
"6.	c #BF7B55",
"7.	c #D5C6B4",
"8.	c #D5C7B4",
"9.	c #A15A4F",
"0.	c #D8C6B4",
"a.	c #A15B4E",
"b.	c #794244",
"c.	c #9F5B51",
"d.	c #A25951",
"e.	c #BF7A56",
"f.	c #BF7859",
"g.	c #ECA262",
"h.	c #A25A52",
"i.	c #D7C5B3",
"j.	c #C07A59",
"k.	c #A35A50",
"l.	c #BC7A58",
"m.	c #A15B53",
"n.	c #D5C4B3",
"o.	c #D6C5B3",
"p.	c #BD7B5B",
"q.	c #A15A53",
"r.	c #BC7A57",
"s.	c #A15B50",
"t.	c #7A4247",
"u.	c #A3594F",
"v.	c #EBA364",
"w.	c #EEA265",
"x.	c #9C5C50",
"y.	c #FACAA1",
"z.	c #EBA363",
"A.	c #EEA365",
"B.	c #EBA362",
"C.	c #C07956",
"D.	c #BE7956",
"E.	c #D6C6B4",
"F.	c #A25950",
"G.	c #ECA361",
"H.	c #BE7A5B",
"I.	c #A15B4F",
"J.	c #A35951",
"K.	c #A25B51",
"L.	c #794346",
"M.	c #A35950",
"N.	c #EBA264",
"O.	c #BE7B58",
"P.	c #F7CBA0",
"Q.	c #EEA364",
"R.	c #9F5B4F",
"S.	c #D6C5B2",
"T.	c #A2584E",
"U.	c #BC7B5A",
"V.	c #D5C4B2",
"W.	c #BD7B5A",
"X.	c #ECA365",
"Y.	c #A05B53",
"Z.	c #7B4148",
"`.	c #A15A4E",
" +	c #ECA264",
".+	c #F7CCA1",
"++	c #9E5C4E",
"@+	c #ECA465",
"#+	c #BF7956",
"$+	c #C07A56",
"%+	c #BE7B57",
"&+	c #D6C5B5",
"*+	c #EBA361",
"=+	c #D5C6B5",
"-+	c #9F5C51",
";+	c #EEA260",
">+	c #EBA365",
",+	c #A25A50",
"'+	c #7A4345",
")+	c #9E5B51",
"!+	c #A25A51",
"~+	c #A25A4F",
"{+	c #794348",
"]+	c #EAA263",
"^+	c #D8C6B3",
"/+	c #D6C7B3",
"(+	c #9F5A4F",
"_+	c #9E5A50",
":+	c #FAC9A0",
"<+	c #EBA463",
"[+	c #D6C7B5",
"}+	c #EAA364",
"|+	c #D6C6B5",
"1+	c #BC7A5A",
"2+	c #7B4245",
"3+	c #BF7858",
"4+	c #9D5B51",
"5+	c #EBA161",
"6+	c #C17A58",
"7+	c #BF795A",
"8+	c #BD7C5A",
"9+	c #D4C5B1",
"0+	c #BE7B5B",
"a+	c #A05A4E",
"b+	c #7A4348",
"c+	c #BF7B59",
"d+	c #9F5A4E",
"e+	c #9D5B4D",
"f+	c #F9C9A2",
"g+	c #ECA462",
"h+	c #C07857",
"i+	c #EDA25F",
"j+	c #ECA464",
"k+	c #784346",
"l+	c #F7CCA0",
"m+	c #C07859",
"n+	c #C17A59",
"o+	c #BD7A5B",
"p+	c #C17B59",
"q+	c #BF7857",
"r+	c #A45A51",
"s+	c #A25B52",
"t+	c #D7C5B2",
"u+	c #D7C5B4",
"v+	c #BE7B5A",
"w+	c #A05B54",
"x+	c #BC7956",
"y+	c #A15A52",
"z+	c #BB7A57",
"A+	c #A1594E",
"B+	c #A35952",
"C+	c #7B4249",
"D+	c #EFA161",
"E+	c #9D5B50",
"F+	c #A2594F",
"G+	c #EBA261",
"H+	c #A15C50",
"I+	c #BE7B59",
"J+	c #D8C5B4",
"K+	c #A35A4E",
"L+	c #7B4347",
"M+	c #EDA164",
"N+	c #EEA161",
"O+	c #BD7B5C",
"P+	c #D6C4B1",
"Q+	c #9E5B4F",
"R+	c #FAC9A1",
"S+	c #EBA464",
"T+	c #EAA464",
"U+	c #A35A4F",
"V+	c #784245",
"W+	c #C17858",
"X+	c #A45A50",
"Y+	c #BC7B59",
"Z+	c #A35A52",
"`+	c #A25952",
" @	c #9F5B52",
"  . + @ # $ % & * = - ; ; ; ; & * = - ; ; ; ; > , ' ) ) ) ) ! ~ ! { ] ; ; ; ; & * ^ / ( _ : : < [ } _ ; ; ; _ & * = - ; ; ; ; | ",
"1 ! ; 2 3 4 5 6 7 8 ; ; ; ; ; 6 7 { ; ; ; ; ; 6 9 0 a b b a : c d { : ; ; ; ; 6 7 e f g 0 h i j k l l ; ; ; ; 6 7 8 ; ; ; ; ; | ",
"m _ + n o p q | k ; ; ; ; ; : r s ; ; ; ; ; : r k % t u n v w x ) ; ; ; ; ; ; y z A B : ; p n C ) D ; ; ; ; ; r ) ; ; ; ; ; : E ",
"F G y r r j H I J ; ; ; ; ; ; r ) ; ; ; ; ; ; r k _ n ; ; n K x L M _ ; ; ; ; N ^ j y r N N O P Q R ; ; ; ; ; r L ; ; ; ; ; ; O ",
"S k T U V W m X Y ; ; ; ; ; : r s ; n ; ; n u | k ; ; ; ; ; : x s 8 ; ; ; ; : Z `  .! ......U +.@.n ; ; ; ; : r s ; n ; ; n : O ",
"#.b $.8 ( b $.Z %.( ; ; ; ; u r s % &.o : *.=.r k ; ; ; ; ; n x s ( ; ; ; ; u y -.R 8 8 ( { 8 ;.) >.; ; ; ; _ r ) a ,.n : *.p E ",
"s '.).: = !.=.H ) ( ; ; ; ; _ y m + i u u i o H J ; ; ; ; ; n ~.) ( ; ; ; ; _ r k =.t ; 8 !.=.H ) 0 ; ; ; ; u y {.; i u u i =.].",
"s { ^.; ; u n y . ; ; ; ; ; : | ^ y ~.~.~.~.H /.J _ _ ; ; ; : x ) 8 ; ; ; ; : r k (.^.; ; u ; _.) : ; ; ; ; : | '.N ~.~.~.~.2 :.",
"<.{ ; ; ; ; n ~.. ; ; ; ; ; ; [.}.{.|.|.|.|.1.( m _ ; ; ; ; n ~.) ( = ; ; : ; r k ; ; ; ; ; >._.) : ; ; ; ; ; 2.3.4.k J k k 5.+ ",
"<.{ ; ; ; ; : y ..; ; ; ; ; ; y ! 6.% b _ a ; N .._ ; ; ; ; n x s 8 7.: : 8.: r k ; ; ; ; ; _ _.) : ; ; ; ; ; y 4._ '.{ _ a ; H ",
"<.{ ; ; ; ; 8 _.) ; ; ; ; ; : r k % v u n v p N |._ ; ; ; ; : 9.5.: p u ; i n | k ; ; ; ; ; ; _.) >.; ; ; ; >.r k : 0.: n v p 2 ",
"<.{ ; ; ; ; $._.s ; ; ; ; ; ; r |._ n ; ; n u O |._ ; ; ; ; n y ^ a.y N N N ~.b.|.; ; ; ; ; : c.) >.; ; ; ; ; r J _ : ; ; n u E ",
"<.{ ; ; ; ; : y ..; n ; ; g u | k ; l ; ; ; u d.m e.; ; ; ; : Z `  .! U ....m f.g.; ; ; ; ; _ ~.) : n ; ; g u | k ; ; ; ; ; u h.",
"<.{ ; ; ; ; n r k a ,.n g i.p r k u ; ; ; ; D y U _ ; ; ; ; n y -.D j.$.8 { ; k.g.; ; ; ; ; : _.) l.v n g i.p r k ; ; ; ; ; u H ",
"<.{ ; ; ; ; n y * : i n u i n m.k ; ; ; ; ; u N |._ ; ; ; ; n ~.|.=.n.n 8 o.p.~.k ; ; ; ; ; 8 | m : i n u i n q.k ; ; ; ; ; u H ",
"s { ; ; ; ; ; O r.s.~.~.x ~.s.t.J _ ; ; ; ; ; O |.e.; ; ; ; : ~.L ; + ; ; u + s.k ; ; ; ; ; _ ~.'.u.y ~.x ~.s.I J _ _ ; ; ; u O ",
"<.{ ; ; ; ; u [.}.v.|.|.|.|.w.( g.e.; ; ; ; ; N J e.g ; ; : o ~.L ; ; ; ; ; o ~.k ; ; ; ; ; ; x.y.z.|.|.|.|.A.( ! _ ; ; ; ; u H ",
"<.{ ; ; ; ; n y B.M = C.C.D.; H . e.; ; ; ; u O k g E.: >.7.i j L ; ; ; ; ; + s.k ; ; ; ; ; 8 y m 6.e.e.e.e.D F.G.; ; ; ; ; u O ",
"<.{ ; ; ; ; : y k : t n n v p O . ; ; ; ; ; D ~.5.; p u u p H.I.|.; ; ; ; ; o ~.k ; ; ; ; ; >._.. e.; ; ; ; ; J.B.; ; ; ; ; u O ",
"<.{ ; ; ; ; ; r |.b n ; ; n u N k ; ; ; ; ; u N '.y y ~.N N K.L.|.; ; ; ; ; + s.k ; ; ; ; ; { O |.e.; ; ; ; R M.N._ _ ; ; ; u H ",
"<.{ n ; ; g u ~.|.M ; ; ; ; O.~.|._ ; ; ; ; D c.P.T ! ......Q.C.4.; ; ; ; ; + s.k ; n ; ; g u R.k e.; ; ; ; ; M.B.; ; ; ; ; u O ",
"<.a v p g S.w y |.M ; ; ; ; ; N k e.; ; ; ; ; N  .D j.8 8 { ; T.m ; ; ; ; ; + ~.k % ,.n g S.p _.|.e.; ; ; ; u J.B.; ; ; ; ; u H ",
"U o U.o u i o m.|.M ; ; ; ; ; N . e.; ; ; ; ; N |.=.V.n 8 o.W.N U ; ; ; ; ; + y X.: i n n i n Y.. e.; ; ; ; R M. ._ ; ; ; ; u H ",
"b a.y k.~.s.O Z.|.M ; ; ; ; : O k e.; ; ; ; ; O L ; + ; ; u + `.U ; ; ; ; ; + H '.u.j r j j 9.t. +e.; ; ; ; ; M.B.; ; ; ; ; u O ",
".+! k z.|.|.5.$.9 M ; ; ; ; u N k _ g ; ; : n N |.; ; ; ; ; u c U ; ; ; ; ; + ++3.B.k J k |.@+#+ .e.; ; ; ; u J.B.; g ; ; : n H ",
"k e.: l $+>.M Z |.M ; ; ; ; %+~.T _ &+: >.7.p _.L ; ; ; ; ; u r L ; ; ; ; ; o y 4._ % _ _ a ; F.*+e.; ; ; ; R M. .: =+: >.7.i -+",
";+p f ; n v l.y |.M ; ; ; ; u N X.n p n ; p n N |.; ; ; ; ; u j |.; ; ; ; ; + s...% 0.: n v : O |.e.; ; ; ; D M.>+; p ; : p n O ",
"s ( n ; ; n ; r |.M ; ; ; ; ; H / 9.y ,+~.O ~.'+|.; ; ; ; ; u `.U ; ; ; ; ; + s...; n ; ; n ( )+|.e.; ; ; ; u !+/ ~+y ~.N N O {+",
"s 8 ; ; ; ; ; _.|.M ; ; ; ; : c.P.! *+G.s s m f.4.; ; ; ; ; u Z L _ n ; ; g o ~...; ; ; ; ; ( )+|.e.; ; ; ; D N P.! *+..m U Q.- ",
"s 8 ; ; ; ; : ~.|.M ; ; ; ; u N -._ 8 - 8 { ; M.U ; ; ; ; ; u j |.a ,.n g S.i ~.|._ ; ; ; ; ( )+|.e.; ; ; ; R M.]+b 8 $.( b l !+",
"s ( ; ; ; ; : y ! M ; ; ; ; ; ~.|.a ^+n = !.p.j L ; ; ; ; ; u `.X.: i n u i W.E J _ ; ; ; ; ( )+|.e.; ; ; ; u d.z.>./+n = !.p.| ",
"s 8 ; ; ; ; ; _.|.M ; ; ; ; u N L _ ^.; _ + + j L ; ; ; ; ; u | r.u.~.~.x ~.N t.* e.; ; ; ; ( )+|.e.; ; ; ; ; J.m _ ^.; ; u + | ",
"s ( _ ; ; ; ; ~.|.M g ; ; : ; N L ; ; ; ; ; o (+L ; ; ; ; ; u _+:+<+k |.|.|.w.8 m _ ; ; ; ; ( )+|._ g ; ; : %+M.m ( ; ; ; ; + N ",
"s 8 ; ; ; ; : y ! { =+: >.[+n y L ; ; ; ; ; u j L ; ; ; ; ; u G }+C.>.C.$+>.j.j U e.; ; ; ; ( )+|.>.|+: >.[+p M.m ( ; ; ; ; + c.",
"s 8 ; ; ; ; ; _.w.>.1+; ; p n | 1.; ; ; ; ; u j L ; ; ; ; ; u r |.>.f n n t i j U _ ; ; ; ; ( [.L : p : u p n | L ( ; ; ; ; + | ",
"s b _ ; ; ; ; O ^ G r y N N 2 I L ; ; ; ; ; + j L ; ; ; ; ; u y |.C.n ; ; n + j U _ ; ; ; ; ( c.^ 9.y ,+O O ~.2+U ( ; ; ; ; + | ",
"s 8 ; ; ; ; : Z P.! v.U ....7 3+..; ; ; ; ; u j L _ : ; ; g u R.|.M ; ; ; ; u j U e.; ; ; ; ( 4+P.J *+4.s s 4.f...( ; ; ; ; + c.",
"s 8 ; ; ; ; ; _.5+l X 8 { = ; d.U ; ; ; ; ; u j L a ,.: g S.i j |.M ; ; ; ; u j U _ ; ; ; ; ( )+-.M 6+; $.{ 7+y U ( ; ; ; ; + | ",
"s ( ; ; ; ; ; _.k p 0.; = !.8+| L ; ; ; ; ; + j X.: i u u i H.F.m M ; ; ; ; + j U _ ; ; ; ; ( )+k >.9+n g E.0+< U ( ; ; ; ; + | ",
"s ; _ ; ; ; : y U l ^.; ; u X a+L ; ; ; ; ; u r '.u.~.~.x ~.O b+|.M ; ; ; ; n (+U e.; ; ; ; ( )+L _ c+; ; u ^.j 1.( ; ; ; ; + c.",
"s 8 g ; ; : ; r |.; ; ; ; ; o d+L ; ; ; ; ; + e+f+g+k J k |. +h+4.M ; ; ; ; + j U _ g ; ; : 8 c.L _ ; ; ; ; + c U ( ; ; ; ; + | ",
"i+A =+g >.[+A `...; ; ; ; ; + r L ; ; ; ; ; u c 4._ % _ _ a _ s.|.M ; ; ; ; u j U >.=+g >.[+K d.m _ ; ; ; ; + c U ( ; ; ; ; + c.",
") u i ; : p : | |.; ; ; ; ; + j L ; ; ; ; ; u j k : 0.: n v o y |.M ; ; ; ; u j j+; p ; O.i u O m _ ; ; ; ; + j U ( ; ; ; ; + | ",
"n G r | y F.O I L ; ; ; ; ; + a+L ; ; ; ; ; + j k ; n ; ; n + ~.|.M ; ; ; ; + r / < y c._.y N k+|._ ; ; ; ; + c U ( ; ; ; ; + | ",
"l+-. +. G.m Q.m+4.; ; ; ; ; + r L _ : ; ; g u (+|.e.; ; ; ; u 9.|.M ; ; ; ; n (+P.! k ) 4.m  +3+4._ ; ; ; ; + j L b : ; ; g + )+",
"%.(.n+- { = 8 u.m ; ; ; ; ; + j L a v g g S.o+j |._ ; ; ; ; u r |.M ; ; ; ; u j -.p+p+$.{ q+8 r+4._ ; ; ; ; + c U >.v g g S.i _.",
"s n o.n g E.W.s+U ; ; ; ; ; + a+X.: i n u i p.C |._ ; ; ; ; u r |.M ; ; ; ; + j k O.t+p g u+p.j U _ ; ; ; ; + j w.; i u u i v+w+",
"s l + ; ; g o ,+U ; ; ; ; ; + r x+T.~.~.x ~.y+t.|.e.; ; ; ; n x |.M ; ; ; ; n (+k _ u ; ; g + 6 |._ ; ; ; ; + r z+A+~.~.R.~.B+C+",
"D+; ; ; ; ; n ,+U ; ; ; ; ; + E+y.9 |.|.|.|.w.8 4._ ; ; ; ; u y |.M '.; ; : + j k ; ; ; ; ; ^.F+|._ ; ; ; ; + e+3.G+) 5.k |.X.- ",
"s l ; ; ; ; n ~.L ; ; ; ; ; + G {.6.>.$+$+>.u ~.|.e.; ; ; ; u 9.|.{ =+: >.[+H.j k ; ; ; ; ; ^.j L _ ; ; ; ; + c 4._ 8 b b >.u H+",
"s l ; ; ; ; n r |.; ; ; ; ; + j @.O.t n n v o+r |._ ; ; ; ; n 9.X.M 1+; ; i I+r k ; ; ; ; ; ^.j |._ ; ; ; ; + j 1.n J+: n v i H ",
"D+l ; ; ; ; n y |.; ; ; ; ; + r . _ n ; ; n u r |._ ; ; ; ; u ~./ K+~.y N N H L+|.; ; ; ; ; ^.9.|._ ; ; ; ; + j k ; n ; ; n u h.",
"s ; ; ; ; ; n ~.L ; : ; ; g u (+. e.l ; ; ; o ~.|.e.; ; ; ; n Z P. .v.U ....z.( g.; ; ; ; ; ^.(+L { : ; ; g u (+M+e._ ; ; ; + x ",
"N+; ; ; ; ; n y |.% v g g S.i j k e.; ; ; ; + y |._ ; ; ; ; u y -.(.j.$.{ = $.M.g.; ; ; ; ; ^.j |.a v g g S.i j |.e.; ; ; ; + O ",
"D+l ; ; ; ; n y X.: i n u i O+O M+e.; ; ; ; + y |._ ; ; ; ; u y k O.P+A g E.W.r k ; ; ; ; ; ^.9.X.: i u u i O+O |._ ; ; ; ; + 2 ",
"s l ; ; ; ; n ~.r.u.~.~.x ~.H /.g.e.; ; ; ; n x |.e.; ; ; ; n x k (.c+; ; g u j k ; ; ; ; ; ^.~.x+u.~.~.x ~.H I ! _ ; ; ; ; + ~.",
"D+l ; ; ; ; n Q+R+S+|.|.|.|.5.8 G+e.; ; ; ; + y |._ g ; ; : u y k ; ; ; ; ; n r k ; ; ; ; ; ^.Q+R+v.|.|.|.|.5.{  ._ _ ; ; ; + s.",
"s ; ; ; ; ; n y T+M >.C.C.>.j.a.M+e.; ; ; ; u 9.|.>.=+g >.[+K 9.k ; ; ; ; ; u j k ; ; ; ; ; ^.c S+C.>.C.C.>.j.s.. ; ; ; ; ; + E ",
"s ; ; ; ; ; n r |.a t n n v i r k e.; ; ; ; u 9.{.; p ; O.i n ~.k ; ; ; ; ; n j k ; ; ; ; ; ^.j |.>.t n n v i r k _ ; ; ; ; + ~.",
"D+l ; ; ; ; n y |.C.n ; ; n u | . e.; ; ; ; + ~./ U+y c._.y ~.V+|.; ; ; ; ; u r k ; ; ; ; ; ^.9.|.C.n ; ; n u r |._ ; ; ; ; + s.",
"s l : ; ; g A _.|.C.; ; ; ; + `.k e.; ; ; ; u r P. .k ) 4.m L W+4.; ; ; ; ; u j k ; : ; ; g + _.|.$+; ; ; ; + y k e.; ; ; ; + E ",
"N+: v '.g S.w ~.|.C.; ; ; ; + j |.e.; ; ; ; u 9.-.(.n+$.{ q+8 X+g.; ; ; ; ; u j k % v g g S.W.j |.$+; ; ; ; + r |._ ; ; ; ; + O ",
"|.+ Y+n n i o Z+! C.; ; ; ; + | . e.; ; ; ; + r k O.P+p g u+W.O k ; ; ; ; ; u y X.; i n u i 0+`+U $+; ; ; ; + r |._ ; ; ; ; + I.",
"( x H !+O O m.C+|.#+; ; ; ; + `.. e.; ; ; ; u 9.k (.c+; ; g 7+r k ; ; ; ; ; u y = K.O O O O m.{+J $+; ; ; ; + y |.e.; ; ; ; +  @"};
